<?xml version="1.0" encoding="utf-8"?>
<!-- Generator: Adobe Illustrator 25.3.0, SVG Export Plug-In . SVG Version: 6.00 Build 0)  -->
<svg version="1.1" id="Layer_1" xmlns="http://www.w3.org/2000/svg" xmlns:xlink="http://www.w3.org/1999/xlink" x="0px" y="0px"
	 viewBox="0 0 245.8 76.6" style="enable-background:new 0 0 245.8 76.6;" xml:space="preserve">
<style type="text/css">
	.st0{fill:#E4484C;}
</style>
<path class="st0" d="M223.3,40.9c0-4.6-3.1-7.9-7.7-7.9s-7.6,3.2-7.6,7.9s3.1,7.9,7.6,7.9S223.3,45.5,223.3,40.9 M227.3,21.5V50
	c0.1,1.1-0.7,2.1-1.8,2.2c-0.1,0-0.1,0-0.2,0c-1.1,0.1-2-0.8-2-1.8c0-0.1,0-0.2,0-0.3v-1.2h-0.1c-1.8,2.4-4.7,3.7-8.4,3.7
	c-6.6,0-11-4.6-11-11.6s4.4-11.6,11-11.6c3.2-0.2,6.3,1.2,8.4,3.7h0.1V21.5c0-1.4,0.7-2.2,2-2.2c1.1,0,2,0.9,2,2
	C227.3,21.4,227.3,21.4,227.3,21.5 M195.1,40.9c0.2-4.1-2.9-7.6-7-7.9c-0.2,0-0.5,0-0.7,0c-4.5,0-7.6,3.2-7.6,7.9s3.1,7.9,7.6,7.9
	S195.1,45.5,195.1,40.9 M199.1,31.8V50c0.1,1.1-0.7,2.1-1.8,2.2c-0.1,0-0.1,0-0.2,0c-1.1,0.1-2-0.8-2-1.8c0-0.1,0-0.2,0-0.3v-1.2
	H195c-1.8,2.4-4.7,3.7-8.4,3.7c-6.6,0-11-4.6-11-11.6s4.4-11.6,11-11.6c3.7,0,6.6,1.4,8.4,3.7h0.1v-1.2c0-1.4,0.7-2.2,2-2.2
	c1.1,0,2,0.9,2,2C199.1,31.6,199.1,31.7,199.1,31.8 M153.6,38.9h14.8c-1-4.1-5.1-6.6-9.2-5.6C156.4,33.9,154.3,36.1,153.6,38.9
	 M172.3,39.9c0.1,1.3-0.9,2.4-2.2,2.5c-0.1,0-0.3,0-0.4,0h-16.2c0.6,3.8,3.5,6.3,7.7,6.3c2.4,0.1,4.6-0.9,6.2-2.6
	c0.4-0.5,1-0.7,1.6-0.7c1-0.1,1.9,0.7,1.9,1.7c0,0.1,0,0.1,0,0.2c0,0.4-0.2,0.9-0.4,1.2c-2.3,2.7-5.8,4.1-9.3,4
	c-7.2,0-12-4.7-12-11.6S154,29.3,161,29.3c6.5,0,11.3,4.6,11.3,10.5L172.3,39.9z M145,39.1V50c0,1.1-0.9,2-2,2s-2-0.9-2-2V39.6
	c0-4.3-1.8-6.6-5.2-6.6s-5.7,2.8-5.7,7.3V50c0,1.1-0.9,2-2,2c-1.1,0-2-0.9-2-2V39.6c0-4.3-1.8-6.6-5.3-6.6s-5.7,2.8-5.7,7.3V50
	c0,1.1-0.9,2-2,2s-2-0.9-2-2V31.8c0-1.4,0.7-2.2,2-2.2c1.1,0,2,0.9,2,2c0,0.1,0,0.2,0,0.2v0.5h0.1c1.6-2,4-3.1,6.6-3
	c3.3,0,5.6,1.3,6.9,3.8h0.1c1.5-2.5,4.2-3.8,7.8-3.8C142.2,29.3,145.1,32.8,145,39.1 M105.9,39.7V50c0.1,1.1-0.7,2.1-1.8,2.2
	c-0.1,0-0.1,0-0.2,0c-1.1,0.1-2-0.8-2-1.8c0-0.1,0-0.2,0-0.3V40c0-4.6-2.2-7-6.5-7s-7,3-7,7.8v9.2c0,1.1-0.9,2-2,2s-2-0.9-2-2V31.7
	c0-1.1,0.9-2,2-2s2,0.9,2,2v1.1h0.1c1.7-2.3,4.3-3.6,7.9-3.6C102.5,29.3,105.9,32.9,105.9,39.7 M74.6,40.9c0.2-4.1-2.9-7.6-7-7.9
	c-0.2,0-0.5,0-0.7,0c-4.5,0-7.6,3.2-7.6,7.9s3.1,7.9,7.6,7.9S74.6,45.6,74.6,40.9 M78.6,31.8V50c0.1,1.1-0.7,2.1-1.8,2.2
	c-0.1,0-0.1,0-0.2,0c-1.1,0.1-2-0.8-2-1.8c0-0.1,0-0.2,0-0.3v-1.2h-0.1c-1.8,2.4-4.7,3.7-8.4,3.7c-6.6,0-10.9-4.6-10.9-11.6
	s4.4-11.6,10.9-11.6c3.7,0,6.6,1.4,8.4,3.7h0.1v-1.2c0-1.4,0.7-2.2,2-2.2c1.1,0,2,0.9,2,2C78.6,31.6,78.6,31.7,78.6,31.8 M54.3,31.5
	c0.1,1-0.7,1.9-1.8,2c-0.1,0-0.2,0-0.2,0c-4.9,0-7.6,2.8-7.6,8.8v7.8c0,1.1-0.9,2-2,2s-2-0.9-2-2V31.8c0-1.4,0.7-2.2,2-2.2
	c1.1,0,2,0.9,2,2c0,0.1,0,0.2,0,0.2v1.6h0.1c1.5-2.6,4-4,7.5-4c1-0.1,1.9,0.7,2,1.8C54.3,31.2,54.3,31.3,54.3,31.5 M35.9,48.4
	c-2.3,2.7-5.6,4.2-9.1,4c-7,0-11.8-4.7-11.8-11.6s4.8-11.6,11.8-11.6c3.2-0.1,6.3,1.2,8.6,3.4c0.3,0.4,0.5,0.9,0.5,1.4
	c0,1-0.7,1.9-1.7,1.9c-0.1,0-0.1,0-0.2,0c-0.5,0-0.9-0.2-1.3-0.4c-1.5-1.6-3.6-2.5-5.8-2.4c-4.5,0-7.6,3.2-7.6,7.9s3,7.9,7.6,7.9
	c2.3,0.1,4.5-0.9,6-2.6c0.4-0.5,0.9-0.7,1.5-0.7c1-0.1,1.9,0.7,1.9,1.7c0,0.1,0,0.2,0,0.2c0,0.4-0.1,0.9-0.4,1.2 M9.3,2.9
	C5.7,3,2.8,6,2.9,9.6V67c-0.1,3.6,2.8,6.6,6.4,6.8h227.2c3.6-0.1,6.5-3.1,6.4-6.8V9.6c0.1-3.6-2.8-6.6-6.4-6.8L9.3,2.9z M236.5,76.6
	H9.3C4.1,76.5-0.1,72.2,0,67V9.6C-0.1,4.4,4.1,0.1,9.3,0h227.2c5.2,0.1,9.3,4.4,9.3,9.6V67C245.8,72.2,241.7,76.5,236.5,76.6"/>
</svg>
